<?xml version="1.0" encoding="UTF-8"?>
<svg id="Layer_2" data-name="Layer 2" xmlns="http://www.w3.org/2000/svg" xmlns:xlink="http://www.w3.org/1999/xlink" viewBox="0 0 261.83 147.4">
  <defs>
    <style>
      .cls-1 {
        fill: url(#radial-gradient);
      }

      .cls-1, .cls-2, .cls-3, .cls-4, .cls-5 {
        stroke-width: 0px;
      }

      .cls-3 {
        fill: #a40000;
      }

      .cls-4 {
        fill: #9f0d43;
      }

      .cls-5 {
        fill: #fff;
      }
    </style>
    <radialGradient id="radial-gradient" cx="66.4" cy="270.48" fx="41.42" fy="259.2" r="119.18" gradientTransform="translate(23.8 523.61) scale(1.67 -1.67)" gradientUnits="userSpaceOnUse">
      <stop offset="0" stop-color="#e07433"/>
      <stop offset=".09" stop-color="#df6e31"/>
      <stop offset=".22" stop-color="#db5d2c"/>
      <stop offset=".26" stop-color="#da562b"/>
      <stop offset=".37" stop-color="#d33936"/>
      <stop offset=".46" stop-color="#ce1e3b"/>
      <stop offset=".53" stop-color="#cd103c"/>
      <stop offset=".59" stop-color="#c21744"/>
      <stop offset=".74" stop-color="#a72156"/>
    </radialGradient>
  </defs>
  <g id="Layer_1-2" data-name="Layer 1">
    <g>
      <g>
        <path class="cls-5" d="M251.71,4.22c-.85-3.02-3.89-4.78-7.06-4.06L112.68,34.42c-3.04.79-7.08,3.48-8.97,5.98l-25.35,33.45c-1.9,2.5-.94,5.09,2.13,5.76l143.45,31.02c3.07.66,6.22-1.28,7-4.32l22.16-86.53c.78-3.04.72-8-.12-11.03l-1.27-4.53Z"/>
        <path class="cls-4" d="M260.78,8.71c-.87-2.94-2.2-5.29-5.41-6.32-2.58-.83-5.07-1.53-7.8-2.19h0c1.96.5,3.56,1.97,4.13,4.03l1.27,4.54c.85,3.02.9,7.99.12,11.03l-22.16,86.53c-.03.13-.08.26-.12.38l29.72-81.89c.64-2.11,1.3-3.27,1.3-6.92.02-3.75-1.05-9.19-1.05-9.19Z"/>
        <path id="SVGID" class="cls-1" d="M252.98,8.76l-1.27-4.54c-.85-3.02-3.89-4.78-7.06-4.06L112.68,34.42c-3.04.79-7.08,3.48-8.97,5.98l-25.35,33.45c-1.9,2.5-.94,5.09,2.13,5.76l28.65,6.2c-1.08-.72-2.08-1.54-2.96-2.47-1.73-1.83-3.02-4.02-3.87-6.56-.85-2.55-1.14-5.35-.88-8.42.27-3.14,1.07-5.98,2.39-8.53,1.32-2.55,3.02-4.72,5.1-6.51s4.47-3.17,7.14-4.13c2.68-.96,5.52-1.44,8.52-1.44,2.78,0,5.47.49,8.07,1.47,2.6.98,4.65,2.41,6.16,4.29l-7.01,6.42c-.78-1.22-1.87-2.12-3.27-2.71-1.39-.59-2.85-.89-4.37-.89-1.67,0-3.22.3-4.67.91-1.44.61-2.71,1.45-3.81,2.52-1.1,1.07-1.98,2.33-2.67,3.79-.68,1.46-1.1,3.06-1.25,4.79-.15,1.77-.02,3.4.41,4.87.43,1.48,1.08,2.74,1.97,3.8.89,1.05,2,1.87,3.32,2.46s2.79.89,4.43.89c1.89,0,3.57-.37,5.05-1.11,1.47-.74,2.69-1.7,3.64-2.88l6.07,6.2c-1.92,1.99-4.2,3.57-6.86,4.74-1.91.84-4,1.36-6.26,1.6l48.09,10.4,1.37-6.26c.43.15.91.27,1.44.36s1.02.14,1.46.14c1.41,0,2.46-.32,3.14-.97s1.3-1.56,1.85-2.74l1.09-2.27-9.19-27.14h10.12l4.62,17.72h.17l7.05-17.72h9.67l-15.18,31.74c-.68,1.44-1.41,2.72-2.2,3.85-.78,1.13-1.68,2.09-2.7,2.88-1.02.79-2.18,1.39-3.49,1.8-.43.13-.89.23-1.37.32l44.46,9.61c3.07.66,6.22-1.28,7-4.32l22.16-86.53c.79-3.03.74-8-.11-11.02ZM147.54,88.02h-9.12l2.41-27.58h9.12l-2.41,27.58ZM151.39,51.64c-.06.7-.26,1.36-.59,1.97s-.75,1.14-1.25,1.58-1.09.79-1.76,1.05-1.36.39-2.06.39c-1.48,0-2.68-.49-3.6-1.47-.91-.98-1.31-2.15-1.19-3.52.06-.66.24-1.3.56-1.91.31-.61.73-1.14,1.25-1.58s1.11-.8,1.76-1.08,1.35-.42,2.09-.42c.7,0,1.37.13,1.99.39.63.26,1.15.61,1.58,1.05.42.44.75.97.97,1.58.23.61.31,1.26.25,1.97ZM171.47,67.2h-6.51l-.92,10.56c-.11,1.3.05,2.27.5,2.92.44.65,1.31.97,2.61.97.44,0,.92-.04,1.43-.11s.93-.18,1.28-.33l-.47,6.64c-.65.22-1.46.42-2.44.58-.98.17-1.95.25-2.91.25-1.85,0-3.39-.23-4.61-.69s-2.17-1.13-2.86-2c-.68-.87-1.14-1.91-1.37-3.11s-.28-2.54-.15-4.03l1.02-11.66h-4.45l.59-6.76h4.39l.63-7.25h8.95l-.63,7.25h6.51l-.59,6.77ZM239.14,73.23c-.21,2.36-.79,4.51-1.76,6.45-.97,1.94-2.25,3.6-3.85,4.98-1.61,1.39-3.49,2.47-5.65,3.24-2.16.78-4.52,1.16-7.08,1.16s-4.9-.39-6.9-1.16c-2.01-.77-3.67-1.85-5-3.24-1.32-1.38-2.29-3.04-2.9-4.98s-.81-4.09-.6-6.45l2.14-24.43h9.45l-2.07,23.65c-.09,1.07-.04,2.09.15,3.05.19.96.55,1.82,1.05,2.57.51.76,1.22,1.36,2.12,1.8s2.03.66,3.36.66,2.49-.22,3.48-.66c.98-.44,1.8-1.04,2.46-1.8.66-.75,1.16-1.61,1.5-2.57s.56-1.97.66-3.05l2.07-23.65h9.51l-2.14,24.43Z"/>
      </g>
      <g>
        <g>
          <path class="cls-2" d="M11.27,111.51h6.76v-1.17h-8.09v-1.88c2.22-.2,4.24-.48,6.15-.87l.26-.05-.65-1.22-.15.03c-4.3.88-8.67,1.32-13.01,1.32h-.56l.35,1.25h.16c2.16-.04,4.24-.15,6.19-.33v1.77H.61v1.17h6.73c-.72.76-1.65,1.5-2.77,2.21-.81.53-1.54.95-2.25,1.29-.69.35-1.4.65-2.11.9l-.21.07.55,1.14.17-.06c1.55-.57,3.18-1.43,4.84-2.55.67-.46,1.31-.97,1.89-1.52.48-.43.89-.83,1.24-1.23v3.54h1.25v-3.54c1.67,1.88,4.24,3.61,7.65,5.14l.13.06,1-1.09-.27-.11c-3.18-1.31-5.6-2.74-7.18-4.27Z"/>
          <path class="cls-2" d="M3.85,124.69h1.25v-1.3h8.53v1.3h1.25v-9.1H3.85v9.1ZM5.1,118.82v-2.06h8.53v2.06H5.1ZM13.63,119.99v2.22H5.1v-2.22h8.53Z"/>
          <path class="cls-2" d="M27.73,110.55l.16.16.78-1.04-.13-.12c-.94-.88-1.96-1.67-3.11-2.41l-.16-.1-.71.95.18.12c.99.66,1.99,1.48,2.99,2.44Z"/>
          <path class="cls-2" d="M28.18,116.71l-1.04-.71-.08.27c-.77,2.63-1.86,5.07-3.23,7.27l-.1.16,1.13.79.11-.2c.72-1.32,1.32-2.53,1.82-3.71.53-1.26.98-2.52,1.35-3.73l.04-.14Z"/>
          <path class="cls-2" d="M25.39,113.63c.56.5,1.09,1.03,1.49,1.45l.16.17.78-1.01-.12-.12c-.99-1.03-2.03-1.92-3.11-2.65l-.16-.11-.71.92.16.12c.51.39,1.01.81,1.51,1.23Z"/>
          <path class="cls-2" d="M37.92,113.92h4.09v-1.17h-4.4v-2.46h3.4v-1.17h-3.4v-2.94h-1.25v2.94h-3.21v-2.94h-1.24v2.94h-2.86v1.17h2.86v2.46h-4v1.17h3.84c-.3.57-.68,1.18-1.14,1.8-.7.89-1.56,1.71-2.56,2.45l-.19.14.93.9.14-.1c.59-.46,1.07-.87,1.5-1.3.32-.31.64-.64.94-1.01v5.23c0,.4.04.7.13.97.08.25.23.45.45.57.1.14.41.26,1.59.34,1.05.06,2.5.1,4.21.1.89,0,1.55-.06,2.03-.19.49-.13.8-.37.87-.68.04-.09.08-.27.15-.78v-.06c.05-.41.11-1.01.16-1.79v-.13s-1.31-.64-1.31-.64l-.02.3c-.08,1.51-.16,2.24-.17,2.3-.11.2-.49.43-1.7.43-4.15,0-4.86-.17-4.97-.24-.06-.06-.1-.11-.13-.21-.02-.05-.04-.15-.02-.34v-1.97h5.7v-3.78c.85.85,1.86,1.64,3,2.37l.14.09.97-1.08-.22-.12c-1.9-1.09-3.34-2.28-4.31-3.57ZM36.36,110.29v2.46h-3.21v-2.46h3.21ZM32.6,118.82v-1.98h4.45v1.98h-4.45ZM32.19,115.66c.35-.55.68-1.13.96-1.75h3.31c.38.6.82,1.19,1.33,1.75h-5.6Z"/>
          <path class="cls-2" d="M64.71,120.48c-.07.7-.13,1.24-.19,1.64-.08.43-.14.74-.17.87-.03.07-.11.23-.21.23-.13,0-.28-.11-.45-.34-.21-.27-.44-.68-.69-1.24-.17-.3-.31-.62-.42-.96-.14-.35-.24-.69-.33-1.05h.01c.95-1.36,1.76-3.62,2.4-6.73l.04-.19-1.32-.34-.04.21c-.23,1.19-.5,2.24-.82,3.21-.24.74-.5,1.4-.76,1.96-.14-.57-.25-1.16-.34-1.81-.13-.68-.23-1.43-.31-2.37-.07-.8-.13-1.63-.17-2.52h4.65v-1.17h-1.9l.96-.66-.08-.16c-.24-.46-.52-.91-.8-1.34-.25-.37-.54-.76-.92-1.24l-.12-.14-1.01.7.12.17c.28.38.59.82.88,1.27.28.44.52.91.72,1.3l.05.1h-2.6c-.06-1.03-.09-2.2-.07-3.56v-.2h-1.33v.2c-.02,1.34,0,2.51.07,3.57h-5.69v5.72c-.02.83-.07,1.63-.17,2.38l-.17-1.06-.25.15c-.59.34-1.24.66-1.95.94v-5.11h2.25v-1.17h-2.25v-5.01h-1.25v5.01h-2.39v1.17h2.39v5.6c-.36.15-.74.29-1.15.42-.41.14-.9.31-1.38.43l-.25.06.65,1.22.16-.05c.71-.21,1.53-.52,2.56-.97.81-.33,1.71-.75,2.93-1.35l.06-.03s-.01.06-.01.09c-.14.81-.33,1.51-.58,2.08-.27.61-.59,1.17-.96,1.66-.38.49-.79.93-1.28,1.35l-.14.13.8,1,.16-.13c.51-.43.97-.9,1.41-1.45.43-.57.81-1.17,1.11-1.81.61-1.34.93-3.16.94-5.43v-.9h2.74c-.05.98-.11,2.05-.19,2.86s-.16,1.37-.23,1.65c-.09.26-.25.57-.56.57-.13,0-.36,0-.69-.08-.31-.06-.63-.16-.99-.3l-.28-.11v1.36l.13.05c.39.14.79.25,1.16.32.31.08.62.11.82.08.32.03.62-.08.83-.3.22-.17.41-.46.6-.88.14-.37.26-1.04.39-2.16.09-.93.17-2.18.26-4.03v-.21s-4,0-4,0v-2.6h4.5c.12,2.04.34,3.91.64,5.53.09.58.17,1.02.28,1.45.09.44.2.86.33,1.23-.96,1.35-2.24,2.58-3.92,3.75l-.17.12.78,1,.16-.1c1.47-.97,2.66-2.01,3.64-3.2.22.66.49,1.25.79,1.75.72,1.26,1.37,1.88,2.01,1.88.42,0,.79-.17,1.08-.52.13-.24.25-.59.37-1.07.12-.47.22-1.07.3-1.82v-.11s-1.15-.93-1.15-.93l-.03.47Z"/>
          <path class="cls-2" d="M81.53,108.76l-.09-.16c-.26-.45-.57-.9-.94-1.38-.31-.4-.65-.81-1.08-1.27l-.12-.13-1.1.76.15.17c.65.72,1.2,1.46,1.64,2.21h-9.01v1.33h8.62v3.15h-6.47v9.26h1.41v-7.93h5.06v9.92h1.41v-9.92h5.3v5.8c0,.4-.09.55-.14.59-.03.02-.08.06-.2.05-.77.03-1.68-.18-2.7-.6l-.3-.12.12,1.38.11.05c.45.18.93.32,1.45.41.43.09.88.14,1.32.14,1.14,0,1.74-.6,1.74-1.74v-7.28h-6.7v-3.15h8.62v-1.33h-8.38l.28-.21Z"/>
          <path class="cls-2" d="M110.47,121.32c-.84-.76-1.54-1.56-2.17-2.48-.67-.86-1.23-1.82-1.67-2.84-.42-.96-.73-1.95-.95-3.01h6.92v-1.41h-8.61c.19-1.43.36-3.13.52-5.19l.02-.22h-1.41v.19c-.06.67-.12,1.3-.18,1.91-.03.32-.06.64-.09.95-.08.77-.18,1.59-.29,2.37h-7.15v1.41h6.92c-.21,1.04-.46,2.02-.75,2.91-.31.93-.65,1.68-.99,2.25-1.27,2.08-3.26,3.87-5.92,5.31l-.25.13,1.08,1,.13-.07c1.49-.82,2.72-1.66,3.77-2.59,1.05-.95,1.91-2,2.54-3.1.74-1.27,1.36-3.24,1.83-5.84h.42c.25,1.25.58,2.37,1.03,3.41.52,1.2,1.1,2.23,1.77,3.13.7,1.07,1.45,1.99,2.3,2.82.81.79,1.74,1.53,2.85,2.25l.15.1,1.06-1.24-.2-.12c-1.02-.63-1.92-1.3-2.68-2.03Z"/>
          <path class="cls-2" d="M120.49,115.45h14.39v1.99h1.23v-3.16h-1.27l.37-7.18h-4.73v1.17h3.44l-.07,1.22h-3.44v1.19h3.38l-.06,1.14h-3.64v1.17h3.58l-.08,1.29h-3.9l.67-.75-.16-.13c-.24-.2-.49-.41-.73-.65-.18-.15-.37-.31-.56-.48.36-.35.71-.77,1.09-1.3l.09-.13-.42-.47.69-.76-.16-.13c-.23-.19-.45-.39-.68-.6-.17-.13-.33-.27-.5-.42.19-.19.39-.4.59-.63.26-.28.49-.58.7-.86l.1-.13-.75-.84-.15.2c-.38.53-.83,1.04-1.37,1.55-.52-.37-1.09-.76-1.83-1.23l-.15-.1-.71.84.19.13c.39.26.78.53,1.19.81l.42.29c-.29.21-.54.38-.79.52-.34.23-.71.42-1.09.57h-.02s0-.09,0-.09h-3.69v-.69c.55-.09,1.13-.24,1.76-.43.6-.19,1.2-.43,1.82-.72l.2-.09-.68-1.11-.16.07c-1.3.57-2.65.96-4.03,1.15l-.18.02.16,6.6h-1.3v3.16h1.25v-2h-.01ZM128.14,109.23c.34.32.68.65,1.04.99-.35.5-.74.94-1.17,1.35-.24-.16-.49-.33-.73-.5-.3-.21-.59-.41-.9-.61l-.09-.06c.27-.14.54-.29.83-.47.39-.23.72-.46,1.02-.7ZM128.02,113.04c.2.19.4.37.6.55.23.23.47.47.72.7h-3.36c.7-.32,1.37-.73,2.04-1.25ZM125.34,110l.41.66.16-.08c.08-.04.15-.07.23-.11l-.61.74.57.39c.33.23.67.46,1.01.7-.53.4-1.15.76-1.84,1.07l-.21.1.52.81h-3.88l-.02-1.37h3.79v-1.17h-3.81v-1.06s3.68,0,3.68,0v-.68Z"/>
          <path class="cls-2" d="M136.74,119.75h-8.59s0-.03,0-.04v-.03c.98-.29,1.86-.61,2.68-.98.94-.4,1.76-.81,2.51-1.28l.1-.06v-1h-11.43v1.17h8.77c-1,.42-2.06.78-3.17,1.07-.02-.02-.03-.05-.05-.09l-.03-.05c-.05-.07-.1-.13-.13-.21l-.08-.2-1.09.5.12.19c.06.09.11.19.17.29.06.11.12.22.18.3.07.14.13.27.19.4h-8.28v1.17h8.63l.09.63c.04.28.06.57.08.85-.02.24-.04.47-.07.62-.03.13-.07.18-.07.18-.06.03-.13.05-.2.06-.09.02-.16.03-.23.03-.6,0-1.26-.15-2.02-.46l-.3-.12.12,1.39.13.04c.38.12.76.22,1.15.3.43.07.8.1,1.14.1.44,0,.82-.11,1.12-.35.33-.28.48-.86.48-1.8v-.12c-.03-.21-.05-.45-.08-.7l-.02-.11c-.02-.17-.05-.36-.08-.55h8.27v-1.14h0Z"/>
        </g>
        <g>
          <path class="cls-3" d="M11.21,139.61c-.16.33-.38.66-.64.98-.26.32-.56.61-.88.87-.32.25-.68.46-1.06.62-.38.16-.77.24-1.18.24-.69,0-1.33-.12-1.92-.36-.59-.24-1.1-.59-1.53-1.03-.43-.45-.77-1-1.02-1.65s-.37-1.39-.37-2.22.13-1.58.38-2.23.6-1.22,1.03-1.68c.44-.46.96-.81,1.54-1.06.59-.25,1.22-.37,1.9-.37.78,0,1.48.22,2.08.65.6.44,1.16,1.14,1.65,2.09l.05.1,1.06-.7-.05-.09c-.25-.41-.55-.8-.9-1.18s-.75-.71-1.2-1-.95-.52-1.5-.69-1.15-.26-1.8-.26-1.32.08-1.91.23c-.6.16-1.16.38-1.65.66-.5.28-.96.62-1.36,1.02-.4.4-.74.83-1.02,1.3s-.49.99-.64,1.52c-.15.54-.22,1.1-.22,1.67,0,.85.16,1.67.48,2.44.32.76.78,1.44,1.36,2.02.59.57,1.3,1.03,2.11,1.37.82.33,1.74.5,2.74.5.69,0,1.33-.09,1.89-.26.56-.17,1.08-.4,1.53-.69.45-.29.85-.63,1.19-1s.64-.77.89-1.18l.05-.09-1.03-.66-.05.12Z"/>
          <path class="cls-3" d="M16.35,129.4c-.1-.1-.23-.19-.37-.25-.28-.12-.61-.12-.89,0-.14.06-.26.14-.37.25s-.19.23-.25.37-.09.29-.09.45.03.31.09.45.14.26.25.37c.1.1.23.19.37.25s.29.09.45.09.31-.03.45-.09.26-.14.37-.25c.11-.1.19-.23.25-.37s.09-.29.09-.45-.03-.31-.09-.45c-.07-.14-.15-.26-.26-.37Z"/>
          <polygon class="cls-3" points="14.53 134.04 14.53 143.1 16.56 143.1 16.56 133.48 15.93 133.48 14.53 134.04"/>
          <path class="cls-3" d="M23.75,141.44c-.12.14-.26.26-.42.36-.15.09-.32.14-.51.14-.13,0-.25-.02-.36-.07s-.2-.11-.28-.19-.14-.18-.19-.28c-.05-.11-.07-.22-.07-.35v-6.41h2.06v-.99h-2.06v-3.14h-.61l-1.41.55v2.62l-1.53.42-.08.02v.53h1.61v6.41c0,.33.04.63.11.9.08.27.19.51.35.71.16.2.36.36.6.47.24.11.53.17.85.17.61,0,1.14-.13,1.55-.39.42-.25.76-.6,1.02-1.05l.05-.09-.62-.41-.06.07Z"/>
          <path class="cls-3" d="M30.4,140.19l-3.49-6.54h-2.32l4.78,8.92-.6,1.34c-.07.16-.16.34-.27.53-.1.18-.23.36-.36.52-.13.15-.28.28-.44.39-.15.1-.31.15-.49.15-.14,0-.28,0-.4-.04s-.23-.06-.33-.11c-.1-.04-.2-.09-.28-.13-.09-.05-.17-.09-.25-.12l-.09-.04-.81,1.81-.03.07.06.05c.15.11.33.21.55.28.21.07.44.1.66.1.3,0,.61-.05.93-.16s.63-.28.92-.5.58-.5.84-.84c.26-.34.49-.74.69-1.2l4.78-11.02h-1.21l-2.84,6.54Z"/>
          <path class="cls-3" d="M48.15,138.8c0,.5-.08.97-.25,1.4s-.41.82-.72,1.14c-.31.33-.69.59-1.13.78-.44.19-.95.29-1.5.29s-1.05-.1-1.5-.29c-.45-.19-.83-.45-1.14-.78s-.56-.71-.73-1.14c-.17-.44-.26-.91-.26-1.4v-7.88h-2.22v7.82c0,.64.11,1.24.34,1.8.22.56.56,1.06,1,1.48s.99.75,1.63.99,1.39.36,2.23.36c.94,0,1.75-.12,2.42-.36s1.23-.57,1.67-.99c.43-.42.76-.91.96-1.46s.3-1.15.3-1.77v-7.88h-1.09v7.89h0Z"/>
          <path class="cls-3" d="M58.87,134.33c-.22-.26-.48-.47-.77-.62-.29-.15-.61-.23-.95-.23-.63,0-1.27.16-1.88.48-.55.28-1.08.69-1.59,1.23v-1.71h-.63l-1.42.55v9.08h2.05v-6.9c.19-.18.39-.35.6-.5.22-.16.44-.3.66-.41s.44-.2.65-.27c.44-.13.82-.13,1.13.02.16.07.31.19.43.33s.22.33.29.55.1.48.1.78v6.41h2.04v-6.73c0-.39-.06-.77-.19-1.12-.13-.37-.3-.68-.52-.94Z"/>
          <polygon class="cls-3" points="62.3 134.04 62.3 143.1 64.33 143.1 64.33 133.48 63.69 133.48 62.3 134.04"/>
          <path class="cls-3" d="M64.12,129.4c-.1-.1-.23-.19-.37-.25-.28-.12-.61-.12-.89,0-.14.06-.26.14-.37.25s-.19.23-.25.37-.09.29-.09.45.03.31.09.45.14.26.25.37c.1.1.23.19.37.25s.29.09.45.09.31-.03.45-.09.26-.14.37-.25c.11-.1.19-.23.25-.37s.09-.29.09-.45-.03-.31-.09-.45c-.07-.14-.15-.26-.26-.37Z"/>
          <polygon class="cls-3" points="70.81 140.5 67.61 133.65 65.46 133.65 69.89 143.14 69.92 143.2 70.68 143.2 74.87 133.8 74.94 133.65 73.88 133.65 70.81 140.5"/>
          <path class="cls-3" d="M83.73,139.5c-.08.28-.22.55-.42.8-.2.26-.45.5-.74.7s-.62.37-.97.5c-.35.12-.73.19-1.11.19-.45,0-.88-.11-1.26-.31-.38-.21-.72-.5-1-.87s-.5-.83-.66-1.34c-.15-.49-.23-1.02-.23-1.59h6.89v-.1c0-.52-.1-1.03-.31-1.51s-.5-.91-.87-1.27c-.37-.37-.82-.66-1.34-.88-.51-.22-1.09-.33-1.7-.33-.7,0-1.34.13-1.91.4-.57.26-1.06.63-1.47,1.1-.4.47-.72,1.03-.94,1.67s-.33,1.34-.33,2.09c0,.63.12,1.23.37,1.78.24.56.58,1.04.99,1.45.42.41.91.74,1.47.98.56.24,1.17.36,1.81.36.49,0,.97-.09,1.45-.28.47-.18.91-.44,1.31-.75.4-.31.75-.69,1.05-1.11s.52-.88.66-1.37l.02-.09-.72-.32-.04.1ZM77.36,136.62c.03-.3.1-.57.21-.83.12-.29.28-.54.47-.75s.41-.37.64-.49c.53-.26,1.14-.21,1.64,0,.28.12.52.29.73.5.21.21.37.46.49.75.11.26.16.54.18.83l-4.36-.02Z"/>
          <path class="cls-3" d="M92.15,133.59c-.57-.16-1.18-.15-1.75.03-.3.09-.59.23-.86.4s-.52.38-.74.61c-.15.16-.29.33-.4.51l-.22-1.67h-.37l-1.41.54v9.09h2.04v-6.52c.12-.25.26-.48.42-.67s.34-.35.53-.48c.19-.12.39-.22.6-.28.35-.1.71-.11,1.07-.08.14,0,.27.04.4.08.13.04.26.11.38.18.12.08.24.18.36.3l.11.13.67-1.78-.07-.05c-.23-.15-.49-.27-.76-.34Z"/>
          <path class="cls-3" d="M99.58,138.55c-.26-.22-.55-.42-.88-.59-.32-.17-.65-.33-.99-.47l-.98-.42c-.32-.13-.6-.29-.85-.45-.24-.16-.44-.33-.58-.53-.14-.19-.21-.41-.21-.66,0-.15.04-.29.12-.43s.19-.26.33-.36.32-.19.52-.25c.21-.06.44-.09.69-.09.46,0,.91.14,1.32.4.42.27.8.69,1.14,1.24l.06.11.84-.75-.06-.08c-.29-.37-.56-.67-.82-.89-.26-.23-.52-.41-.79-.54-.26-.12-.53-.21-.81-.25-.27-.04-.57-.06-.87-.06-.47,0-.9.07-1.3.2-.39.13-.74.32-1.03.56-.29.24-.52.52-.68.85-.16.33-.25.69-.25,1.07,0,.4.07.76.22,1.07.15.3.34.57.58.8s.51.43.81.6c.29.16.59.32.91.47.31.15.61.29.9.43.29.13.55.28.77.45.22.16.4.34.53.54.13.19.19.42.19.68,0,.16-.04.31-.11.46-.08.15-.19.29-.33.41-.14.12-.32.21-.51.28-.42.15-.95.13-1.36.02-.21-.06-.43-.16-.63-.29-.21-.13-.41-.31-.61-.53-.2-.21-.41-.48-.63-.79l-.07-.1-.91.82.06.08c.28.37.57.67.87.89.29.23.59.41.89.53.3.13.6.21.89.26.29.04.58.06.85.06.6,0,1.14-.07,1.59-.22s.83-.35,1.13-.61.53-.57.68-.92c.15-.35.23-.73.23-1.14s-.08-.76-.24-1.06c-.15-.3-.36-.57-.62-.8Z"/>
          <path class="cls-3" d="M104.35,129.4c-.1-.1-.23-.19-.37-.25-.28-.12-.61-.12-.89,0-.14.06-.26.14-.37.25s-.19.23-.25.37-.09.29-.09.45.03.31.09.45.14.26.25.37c.1.1.23.19.37.25s.29.09.45.09.31-.03.45-.09.26-.14.37-.25c.11-.1.19-.23.25-.37s.09-.29.09-.45-.03-.31-.09-.45c-.07-.14-.15-.26-.26-.37Z"/>
          <polygon class="cls-3" points="102.53 134.04 102.53 143.1 104.56 143.1 104.56 133.48 103.92 133.48 102.53 134.04"/>
          <path class="cls-3" d="M111.75,141.44c-.12.14-.26.26-.42.36-.15.09-.32.14-.51.14-.13,0-.25-.02-.36-.07s-.2-.11-.28-.19-.14-.18-.19-.28c-.05-.11-.07-.22-.07-.35v-6.41h2.06v-.99h-2.06v-3.14h-.63l-1.41.55v2.62l-1.53.42-.08.02v.53h1.61v6.41c0,.33.04.63.11.9.08.27.19.51.35.71.16.2.36.36.6.47s.53.17.85.17c.61,0,1.14-.13,1.55-.39.42-.25.76-.6,1.02-1.05l.05-.09-.62-.41-.04.07Z"/>
          <path class="cls-3" d="M118.4,140.19l-3.49-6.54h-2.32l4.78,8.92-.6,1.34c-.07.16-.16.34-.27.53-.1.18-.23.36-.36.52-.13.15-.28.28-.44.39-.15.1-.31.15-.49.15-.14,0-.28,0-.4-.04s-.23-.06-.33-.11c-.1-.04-.2-.09-.28-.13-.09-.05-.17-.09-.25-.12l-.09-.04-.81,1.81-.03.07.06.05c.15.11.33.21.55.28.21.07.44.1.66.1.3,0,.61-.05.93-.16.32-.11.63-.28.92-.5s.58-.5.84-.84.49-.74.69-1.2l4.78-11.02h-1.21l-2.84,6.54Z"/>
          <path class="cls-3" d="M135.18,134.82c-.44-.42-.97-.75-1.57-.99s-1.27-.36-1.98-.36-1.4.13-2,.39c-.61.26-1.14.62-1.58,1.08-.44.45-.79.99-1.04,1.6s-.37,1.27-.37,1.96.13,1.29.37,1.87c.25.58.6,1.09,1.04,1.52.44.43.97.78,1.58,1.03s1.28.38,2,.38,1.39-.14,1.99-.41,1.13-.65,1.57-1.12.79-1.02,1.04-1.65.37-1.3.37-2.01c0-.64-.13-1.26-.37-1.82-.26-.55-.61-1.05-1.05-1.47ZM132.92,142.15c-.28.17-.6.26-.94.26-.48,0-.92-.12-1.29-.37-.38-.25-.71-.59-.97-1.01-.27-.43-.47-.94-.61-1.51-.14-.58-.21-1.21-.21-1.87,0-.45.06-.88.19-1.28s.3-.75.51-1.05c.21-.29.46-.53.73-.7.27-.17.55-.25.84-.25.57,0,1.07.12,1.46.36.4.24.73.57.98.99s.43.92.55,1.49c.11.58.17,1.2.17,1.86,0,.45-.06.88-.18,1.29-.12.4-.28.76-.49,1.07-.21.3-.46.54-.74.72Z"/>
          <path class="cls-3" d="M145.29,130.02c-.21-.23-.45-.43-.72-.59-.26-.16-.56-.28-.87-.37-.77-.21-1.63-.16-2.36.17-.43.2-.81.47-1.12.81-.32.34-.57.73-.76,1.19-.18.45-.28.94-.28,1.46v.96h-1.92v.99h1.92v8.46h2.05v-8.46h2.46v-.99h-2.46v-2.07c0-.22.03-.45.09-.66s.15-.4.26-.56.24-.29.39-.39c.15-.09.31-.14.49-.14.29,0,.54.06.73.18.2.12.36.27.49.46s.24.41.33.65c.09.24.17.49.23.72l.04.14,1.53-1.1-.03-.08c-.12-.28-.29-.55-.49-.78Z"/>
          <polygon class="cls-3" points="157.77 136.38 151.96 136.38 151.96 130.92 149.74 130.92 149.74 143.1 151.96 143.1 151.96 137.36 157.77 137.36 157.77 143.1 159.99 143.1 159.99 130.92 157.77 130.92 157.77 136.38"/>
          <path class="cls-3" d="M170.5,134.82c-.44-.42-.97-.75-1.57-.99s-1.27-.36-1.98-.36-1.4.13-2,.39c-.61.26-1.14.62-1.58,1.08-.44.45-.79.99-1.04,1.6s-.37,1.27-.37,1.96.13,1.29.37,1.87c.25.58.6,1.09,1.04,1.52.44.43.97.78,1.58,1.03s1.28.38,2,.38,1.39-.14,1.99-.41,1.13-.65,1.57-1.12.79-1.02,1.04-1.65c.25-.63.37-1.3.37-2.01,0-.64-.13-1.26-.37-1.82-.26-.55-.61-1.05-1.05-1.47ZM168.23,142.15c-.28.17-.6.26-.94.26-.48,0-.92-.12-1.29-.37-.38-.25-.71-.59-.97-1.01-.27-.43-.47-.94-.61-1.51-.14-.58-.21-1.21-.21-1.87,0-.45.06-.88.19-1.28s.3-.75.51-1.05c.21-.29.46-.53.73-.7.27-.17.55-.25.84-.25.57,0,1.07.12,1.46.36.4.24.73.57.98.99s.43.92.55,1.49c.11.58.17,1.2.17,1.86,0,.45-.06.88-.18,1.29-.12.4-.28.76-.49,1.07-.2.3-.45.54-.74.72Z"/>
          <path class="cls-3" d="M181.09,134.33c-.22-.26-.48-.47-.77-.62-.29-.15-.61-.23-.95-.23-.63,0-1.27.16-1.88.48-.55.28-1.08.69-1.59,1.23v-1.71h-.63l-1.42.55v9.08h2.05v-6.9c.19-.18.39-.35.6-.5.22-.16.44-.3.66-.41s.44-.2.65-.27c.44-.13.82-.13,1.13.02.16.07.31.19.43.33s.22.33.29.55c.07.22.1.48.1.78v6.41h2.04v-6.73c0-.39-.06-.77-.19-1.12-.12-.37-.3-.68-.52-.94Z"/>
          <path class="cls-3" d="M190.17,133.89c-.19-.08-.4-.15-.63-.21-.24-.06-.5-.11-.76-.15-.27-.04-.55-.05-.83-.05-.58,0-1.13.09-1.63.27-.5.18-.94.42-1.32.73s-.68.68-.89,1.09c-.21.42-.32.86-.32,1.33,0,.63.18,1.2.55,1.69.32.43.75.77,1.28,1.04-.18.08-.36.18-.52.29-.23.15-.43.33-.61.52-.18.19-.32.39-.42.6-.11.22-.16.43-.16.63,0,.14.03.28.1.41.07.12.16.24.28.34.11.1.25.19.41.27.1.05.2.1.31.14-.19.15-.37.3-.57.45-.24.2-.47.41-.67.63s-.37.45-.5.69-.2.51-.2.78c0,.31.1.6.3.85.2.24.5.46.89.63.38.17.87.3,1.45.39.57.09,1.25.14,2.02.14.86,0,1.64-.08,2.32-.25.68-.17,1.27-.41,1.75-.73.48-.31.85-.7,1.11-1.15s.39-.96.39-1.51c0-.31-.05-.6-.14-.85-.1-.26-.26-.48-.49-.67-.22-.19-.53-.34-.91-.45-.37-.11-.84-.17-1.39-.2l-3.41-.15c-.36-.02-.63-.08-.82-.18-.17-.09-.25-.2-.25-.35,0-.17.05-.35.16-.52.1-.16.23-.31.38-.44.18.05.38.1.6.13.25.04.5.05.73.05.64,0,1.23-.08,1.76-.23.53-.16,1-.38,1.38-.67.39-.29.69-.64.91-1.05s.33-.86.33-1.36c0-.32-.06-.64-.17-.97-.09-.26-.2-.49-.33-.7h1.66v-.98h-2.7c-.12-.11-.26-.19-.43-.27ZM185.09,144.11c.03-.13.09-.27.15-.4.07-.13.15-.26.25-.38.09-.11.19-.21.31-.3.13.02.33.04.59.07.3.03.64.06,1.03.09s.81.05,1.27.07c.44.02.9.03,1.35.03.35,0,.67.02.94.07s.51.12.69.21c.18.09.32.2.42.34.09.13.14.29.14.47,0,.17-.08.35-.24.52-.17.18-.42.35-.74.51-.33.16-.74.28-1.21.38-.47.09-1.02.14-1.63.14-.57,0-1.07-.04-1.5-.12s-.79-.2-1.06-.33c-.27-.14-.48-.29-.61-.47-.13-.17-.19-.34-.19-.52,0-.12,0-.25.04-.38ZM186.97,134.35c.21-.12.46-.18.75-.18s.58.08.84.23c.27.15.51.37.71.64.2.27.37.6.49.98.12.38.18.79.18,1.23,0,.3-.05.59-.16.85-.1.26-.24.49-.42.69-.17.19-.38.35-.6.46-.5.24-1.07.21-1.51-.05-.24-.14-.46-.34-.63-.6-.18-.26-.32-.56-.42-.91-.1-.35-.15-.73-.15-1.14,0-.34.03-.66.1-.96.07-.29.17-.55.31-.76.13-.2.3-.36.51-.48Z"/>
          <polygon class="cls-3" points="207.67 130.92 206.04 130.92 199.87 136.11 199.87 130.92 197.65 130.92 197.65 143.1 199.87 143.1 199.87 137.16 206.36 143.08 206.39 143.1 209.26 143.1 201.56 136.07 207.67 130.92"/>
          <path class="cls-3" d="M218,134.82c-.44-.42-.97-.75-1.57-.99s-1.27-.36-1.98-.36-1.39.13-2,.39-1.14.62-1.58,1.08c-.44.45-.79.99-1.04,1.6s-.37,1.27-.37,1.96.12,1.29.37,1.87.6,1.09,1.04,1.52c.44.43.97.78,1.58,1.03s1.28.38,2,.38,1.38-.14,1.99-.41c.6-.27,1.13-.65,1.57-1.12s.79-1.02,1.04-1.65c.25-.62.37-1.3.37-2.01,0-.65-.13-1.26-.37-1.82-.26-.55-.61-1.05-1.05-1.47ZM215.73,142.15c-.28.17-.6.26-.94.26-.48,0-.92-.12-1.29-.37-.38-.25-.71-.59-.97-1.01-.27-.43-.47-.93-.61-1.51s-.21-1.21-.21-1.87c0-.45.07-.88.19-1.28.13-.4.3-.75.52-1.05.21-.29.46-.53.73-.7.27-.17.55-.25.84-.25.57,0,1.07.12,1.46.36.4.24.73.57.98.99s.44.92.55,1.49c.11.58.17,1.2.17,1.86,0,.45-.06.89-.18,1.29s-.28.76-.49,1.07c-.21.3-.46.54-.75.72Z"/>
          <path class="cls-3" d="M228.59,134.33c-.22-.26-.48-.47-.77-.62-.29-.15-.61-.23-.96-.23-.63,0-1.26.16-1.88.48-.55.28-1.08.69-1.59,1.23v-1.71h-.63l-1.42.55v9.08h2.05v-6.9c.18-.18.39-.35.6-.5.22-.16.44-.3.66-.41s.44-.2.65-.27c.44-.13.82-.13,1.13.02.16.07.31.18.43.33.12.15.22.33.29.55s.1.48.1.78v6.41h2.04v-6.73c0-.39-.06-.77-.19-1.12-.11-.37-.29-.68-.51-.94Z"/>
          <path class="cls-3" d="M240.79,134.14h-2.7c-.11-.09-.25-.17-.42-.24-.19-.08-.4-.15-.63-.21-.24-.06-.5-.11-.76-.15-.27-.04-.55-.05-.83-.05-.58,0-1.13.09-1.63.27-.5.18-.95.42-1.32.73-.38.31-.68.68-.89,1.09-.21.42-.32.86-.32,1.33,0,.63.18,1.2.55,1.69.32.43.75.77,1.28,1.04-.18.08-.36.18-.52.29-.23.15-.43.33-.61.52s-.32.39-.42.6c-.11.22-.16.43-.16.63,0,.14.03.28.1.41.07.12.16.24.27.34.11.1.25.19.41.27.1.05.2.1.31.14-.19.15-.38.3-.57.45-.24.2-.47.41-.67.63s-.37.45-.5.69-.2.5-.2.78c0,.31.1.6.3.85.2.24.5.46.89.63.38.17.87.3,1.45.39.57.09,1.25.14,2.02.14.86,0,1.64-.08,2.32-.25s1.27-.41,1.75-.73c.48-.31.85-.7,1.11-1.15.26-.45.39-.96.39-1.51,0-.31-.05-.6-.14-.85-.1-.26-.26-.48-.49-.67-.22-.19-.53-.34-.91-.45-.37-.11-.84-.17-1.39-.2l-3.41-.15c-.36-.02-.63-.08-.82-.18-.17-.09-.25-.2-.25-.35,0-.17.06-.35.16-.52.11-.17.23-.31.38-.44.17.05.38.1.6.13.25.04.5.05.73.05.64,0,1.23-.08,1.76-.23.53-.16,1-.38,1.38-.67.39-.29.69-.64.91-1.05s.33-.86.33-1.36c0-.32-.06-.64-.17-.97-.09-.26-.2-.49-.33-.7h1.66v-1.01h0ZM232.59,144.11c.03-.13.09-.27.15-.4.07-.13.15-.26.25-.38.09-.11.19-.21.31-.3.13.02.33.04.59.07.3.03.64.06,1.03.09.39.03.81.05,1.27.07.44.02.9.03,1.35.03.35,0,.67.02.94.07s.51.12.69.21c.18.09.32.2.42.34.09.13.14.29.14.47,0,.17-.08.35-.24.52-.17.18-.42.35-.74.51-.33.16-.74.28-1.21.38-.47.09-1.02.14-1.63.14-.57,0-1.07-.04-1.5-.12s-.79-.2-1.06-.33c-.27-.14-.48-.29-.61-.47-.13-.17-.19-.34-.19-.52-.01-.12,0-.25.04-.38ZM234.47,134.35c.21-.12.46-.18.75-.18s.58.08.84.23c.27.15.51.37.71.64.2.27.37.6.49.98.12.38.18.79.18,1.23,0,.3-.05.59-.16.85-.1.26-.24.49-.42.69-.17.19-.38.35-.6.46-.5.24-1.07.21-1.51-.05-.24-.14-.46-.34-.63-.6-.18-.26-.32-.56-.42-.91s-.15-.73-.15-1.14c0-.34.03-.66.1-.96.07-.29.17-.55.31-.76.13-.2.3-.36.51-.48Z"/>
        </g>
      </g>
    </g>
  </g>
</svg>